<svg xmlns="http://www.w3.org/2000/svg" width="53.727" height="29.441" viewBox="0 0 53.727 29.441">
  <g id="Grupo_18540" data-name="Grupo 18540" transform="translate(-23.015 -20.922)">
    <g id="Light_Card" data-name="Light Card" transform="translate(23.015 20.922)">
      <g id="New_balance" data-name="New balance" transform="translate(0)">
        <g id="Grupo_5229" data-name="Grupo 5229" transform="translate(0 22.576)">
          <g id="g12175" transform="translate(0 1.502)">
            <path id="path12177" d="M0-23.637H1.2v-2.39a2.354,2.354,0,0,1,.218-1.259,1.031,1.031,0,0,1,.824-.443c1.014,0,1.014,1.2,1.014,1.611v2.481h1.2v-2.716A2.829,2.829,0,0,0,4-28.137a2.048,2.048,0,0,0-1.512-.7,1.875,1.875,0,0,0-1.377.608v-.436H0v5.026" transform="translate(0 28.836)" fill="#454546"/>
          </g>
          <g id="g12179" transform="translate(4.772 1.475)">
            <path id="path12181" d="M-23.513-14.786a2.891,2.891,0,0,0,.072-.606,2.641,2.641,0,0,0-2.6-2.646,2.682,2.682,0,0,0-2.644,2.727,2.642,2.642,0,0,0,2.653,2.663A2.608,2.608,0,0,0-23.6-14.4h-1.268a1.232,1.232,0,0,1-1.158.642,1.438,1.438,0,0,1-1.386-1.032Zm-3.94-.969a1.455,1.455,0,0,1,1.422-1.177,1.347,1.347,0,0,1,1.358,1.177h-2.78" transform="translate(28.684 18.037)" fill="#454546" fill-rule="evenodd"/>
          </g>
          <g id="g12183" transform="translate(9.746 1.675)">
            <path id="path12185" d="M-8.238-22.854H-7.5l.951-3.259h.017l.943,3.259h.742L-3-27.881H-4.29l-.925,3.07h-.017l-.816-3.07h-.959l-.824,3.07h-.018l-.914-3.07h-1.286Z" transform="translate(10.049 27.881)" fill="#454546"/>
          </g>
          <g id="g12187" transform="translate(19.12)">
            <path id="path12189" d="M0-30.468H1.1v-.607A2.025,2.025,0,0,0,2.8-30.3,2.584,2.584,0,0,0,5.3-33a2.6,2.6,0,0,0-2.526-2.663,2.235,2.235,0,0,0-1.567.626v-2.129H0Zm1.131-2.58a1.5,1.5,0,0,1,1.494-1.512,1.48,1.48,0,0,1,1.468,1.567,1.468,1.468,0,0,1-1.449,1.584,1.529,1.529,0,0,1-1.513-1.639" transform="translate(0 37.169)" fill="#454546" fill-rule="evenodd"/>
          </g>
          <g id="g12191" transform="translate(24.734 1.502)">
            <path id="path12193" d="M-24.132-.785h-1.106V-.15h-.018a2.145,2.145,0,0,0-1.666-.808A2.541,2.541,0,0,0-29.439,1.7,2.512,2.512,0,0,0-26.993,4.4a2.494,2.494,0,0,0,1.756-.786v.623h1.106Zm-1.141,2.5A1.481,1.481,0,0,1-26.741,3.3a1.5,1.5,0,0,1-1.494-1.548,1.526,1.526,0,0,1,1.494-1.6,1.469,1.469,0,0,1,1.468,1.567" transform="translate(29.439 0.958)" fill="#454546" fill-rule="evenodd"/>
          </g>
          <path id="path12195" d="M339.207-2167.134H338v6.7h1.2Z" transform="translate(-307.322 2167.134)" fill="#454546"/>
          <g id="g12197" transform="translate(32.247 1.502)">
            <path id="path12199" d="M-24.129-.785h-1.1V-.15h-.019a2.145,2.145,0,0,0-1.666-.808A2.54,2.54,0,0,0-29.436,1.7,2.511,2.511,0,0,0-26.991,4.4a2.5,2.5,0,0,0,1.757-.786v.623h1.1Zm-1.141,2.5A1.48,1.48,0,0,1-26.737,3.3a1.5,1.5,0,0,1-1.494-1.548,1.526,1.526,0,0,1,1.494-1.6A1.468,1.468,0,0,1-25.27,1.716" transform="translate(29.436 0.958)" fill="#454546" fill-rule="evenodd"/>
          </g>
          <g id="g12201" transform="translate(38.195 1.502)">
            <path id="path12203" d="M0-23.637H1.2v-2.39a2.354,2.354,0,0,1,.218-1.259,1.033,1.033,0,0,1,.824-.443c1.014,0,1.014,1.2,1.014,1.611v2.481H4.465v-2.716A2.821,2.821,0,0,0,4-28.137a2.047,2.047,0,0,0-1.512-.7,1.877,1.877,0,0,0-1.377.608v-.436H0v5.026" transform="translate(0 28.836)" fill="#454546"/>
          </g>
          <g id="g12205" transform="translate(43.107 1.502)">
            <path id="path12207" d="M-17.415-16.187a1.292,1.292,0,0,1-1.113.7,1.507,1.507,0,0,1-1.513-1.576,1.465,1.465,0,0,1,1.458-1.576,1.25,1.25,0,0,1,1.168.733h1.359a2.636,2.636,0,0,0-2.528-1.839,2.672,2.672,0,0,0-2.662,2.663,2.689,2.689,0,0,0,2.671,2.7,2.6,2.6,0,0,0,2.518-1.8h-1.359" transform="translate(21.245 19.747)" fill="#454546"/>
          </g>
          <g id="g12209" transform="translate(48.484 1.475)">
            <path id="path12211" d="M-23.513-14.786a2.823,2.823,0,0,0,.072-.606,2.64,2.64,0,0,0-2.6-2.646,2.683,2.683,0,0,0-2.645,2.727,2.642,2.642,0,0,0,2.653,2.663A2.607,2.607,0,0,0-23.6-14.4h-1.267a1.234,1.234,0,0,1-1.159.642,1.433,1.433,0,0,1-1.384-1.032Zm-3.939-.969a1.455,1.455,0,0,1,1.421-1.177,1.346,1.346,0,0,1,1.358,1.177h-2.78" transform="translate(28.684 18.037)" fill="#454546" fill-rule="evenodd"/>
          </g>
        </g>
        <g id="g12213" transform="translate(7.416)">
          <path id="path12215" d="M-59.476-57.371l-1.61,2.78-8.909-.5.892-1.548Zm6.44-8.857.807,3.068-12.641-.831.891-1.548Zm-8.38-3.76,7.4.005.559,2.1-8.848-.555Zm-.65,17.125-1.285,2.209-9.2.01.891-1.547Zm16.161-5.96-2.228,3.862h2.122c.983,0,2.745-.491,3.287-1.891a1.313,1.313,0,0,0-1.065-1.973Zm2.125-3.694,1.851-.011a3.15,3.15,0,0,0,2.987-1.713c.433-1.061-.149-1.964-.921-1.961l-1.79,0Zm-8.379-.643L-50.29-66.4l6.326-.406.221-.393-5.852-.409,1.368-2.376h10.852c3.337,0,5.806,1.193,4.846,4.7-.289,1.063-1.645,3.739-5.623,4.86a3,3,0,0,1,2.585,3.448c-.644,4.284-6.19,6.323-9.275,6.324l-12.811.006-.631-2.478,6.71-.473.228-.392-7.278-.443-.784-2.938,10.356-.6.225-.389-18.605-1.174.891-1.547,20.027-1.3.227-.39-5.871-.381" transform="translate(72.556 69.988)" fill="#454546" fill-rule="evenodd"/>
        </g>
      </g>
    </g>
  </g>
</svg>
