<svg xmlns="http://www.w3.org/2000/svg" width="47.208" height="31.41" viewBox="0 0 47.208 31.41">
  <g id="Grupo_18539" data-name="Grupo 18539" transform="translate(-26.391 -19.793)">
    <g id="Light_Card" data-name="Light Card" transform="translate(26.391 19.793)">
      <g id="adidas" transform="translate(0)">
        <path id="Trazado_7239" data-name="Trazado 7239" d="M529.677,356.7h-2.06a1.378,1.378,0,0,0-.3-.718,1.549,1.549,0,0,0-1.115-.334,1.665,1.665,0,0,0-1.065.256.661.661,0,0,0-.228.526c0,.312.434.561,1.293.753a20.5,20.5,0,0,1,2.117.547c.114.043.213.078.284.114a1.99,1.99,0,0,1,1.307,1.876,2.377,2.377,0,0,1-1.272,2.237c-.107.057-.206.107-.32.157a4.812,4.812,0,0,1-1.9.355,5.221,5.221,0,0,1-2.6-.569,2.454,2.454,0,0,1-.933-.911,2.561,2.561,0,0,1-.31-1.283h2.159a1.021,1.021,0,0,0,.4.859,2.216,2.216,0,0,0,1.342.313,1.619,1.619,0,0,0,1.066-.3.666.666,0,0,0,.27-.526c0-.334-.425-.6-1.272-.781a13.835,13.835,0,0,1-2.386-.647,1.98,1.98,0,0,1-1.293-1.9,2.48,2.48,0,0,1,.675-1.768,3.342,3.342,0,0,1,2.55-.9,5.329,5.329,0,0,1,2.237.4.769.769,0,0,1,.135.072,2.249,2.249,0,0,1,.914.874A2.6,2.6,0,0,1,529.677,356.7Z" transform="translate(-482.704 -331.18)" fill="#454546"/>
        <path id="Trazado_7240" data-name="Trazado 7240" d="M562.6,333.569a.169.169,0,0,0-.029-.107.153.153,0,0,0-.092-.071,1.061,1.061,0,0,0-.136-.022h-.326v.4h.326a.3.3,0,0,0,.192-.056A.18.18,0,0,0,562.6,333.569Zm.171-.214a.312.312,0,0,1,.064.192.346.346,0,0,1-.107.256.411.411,0,0,1-.277.121.351.351,0,0,1,.113.071l.2.263.156.262h-.256l-.121-.213a1.2,1.2,0,0,0-.2-.284.092.092,0,0,0-.029-.021l-.17-.049h-.128v.568h-.214v-1.335h.462c.029,0,.057.007.078.007a.768.768,0,0,1,.256.036A.309.309,0,0,1,562.773,333.355Z" transform="translate(-516.73 -313.076)" fill="#454546"/>
        <path id="Trazado_7241" data-name="Trazado 7241" d="M558.876,329.987a1.031,1.031,0,0,0-.135-.519,1,1,0,0,0-.384-.384,1.1,1.1,0,0,0-.5-.135h-.007a1.1,1.1,0,0,0-.5.135,1,1,0,0,0-.384.384,1.008,1.008,0,0,0,0,1.03.962.962,0,0,0,.376.376,1.019,1.019,0,0,0,.511.135h.007a1.024,1.024,0,0,0,.512-.135.956.956,0,0,0,.376-.376A1.025,1.025,0,0,0,558.876,329.987Zm.206,0a1.216,1.216,0,0,1-.164.611,1.075,1.075,0,0,1-.454.454,1.19,1.19,0,0,1-.612.164h-.007a1.187,1.187,0,0,1-.611-.164,1.076,1.076,0,0,1-.455-.454,1.213,1.213,0,0,1-.163-.611,1.231,1.231,0,0,1,.163-.626,1.143,1.143,0,0,1,.462-.454,1.342,1.342,0,0,1,.6-.163h.007a1.261,1.261,0,0,1,.6.163,1.092,1.092,0,0,1,.462.454A1.233,1.233,0,0,1,559.082,329.987Z" transform="translate(-512.229 -309.224)" fill="#454546"/>
        <path id="Trazado_7242" data-name="Trazado 7242" d="M397.055,192.38l5.832,9.717h-9.369l-5.569-9.284-4.219-7.025,4.219-2.536,2.656-1.6Z" transform="translate(-362.286 -181.654)" fill="#454546"/>
        <path id="Trazado_7243" data-name="Trazado 7243" d="M460.936,358.975v3.985H459v-.441a4.149,4.149,0,0,1-2.273.675H456.7a4.219,4.219,0,0,1,0-8.439h.022a4.158,4.158,0,0,1,2.273.674v-.462h1.939Zm-1.939.441v-.881a2.324,2.324,0,0,0-2.273-1.876H456.7a2.319,2.319,0,0,0,0,4.639h.022A2.33,2.33,0,0,0,459,359.416Z" transform="translate(-421.934 -331.785)" fill="#454546"/>
        <path id="Trazado_7244" data-name="Trazado 7244" d="M392.32,342.45v3.985h-1.939v-.441a4.167,4.167,0,0,1-2.273.675h-.021a4.219,4.219,0,0,1,0-8.439h.021a4.175,4.175,0,0,1,2.273.674v-3.2h1.939Zm-1.939.441v-.881a2.324,2.324,0,0,0-2.273-1.876h-.021a2.319,2.319,0,0,0,0,4.639h.021A2.33,2.33,0,0,0,390.381,342.891Z" transform="translate(-362.424 -315.26)" fill="#454546"/>
        <path id="Trazado_7245" data-name="Trazado 7245" d="M333.82,245.807l2.287,3.822h-9.362l-5.2-8.652-.227-.377.227-.134,6.656-4.007Z" transform="translate(-308.155 -229.186)" fill="#454546"/>
        <path id="Trazado_7246" data-name="Trazado 7246" d="M299.833,342.45v3.985h-1.939v-.441a4.188,4.188,0,0,1-2.28.675h-.021a4.219,4.219,0,0,1,0-8.439h.021a4.2,4.2,0,0,1,2.28.674v-3.2h1.939Zm-1.939.441v-.881a2.326,2.326,0,0,0-2.28-1.876h-.021a2.319,2.319,0,0,0,0,4.639h.021A2.331,2.331,0,0,0,297.894,342.891Z" transform="translate(-282.205 -315.26)" fill="#454546"/>
        <path id="Trazado_7247" data-name="Trazado 7247" d="M267.46,294.02l1.918,3.2h-9.369l-1.051-1.755,6.883-4.134Z" transform="translate(-254.069 -276.774)" fill="#454546"/>
        <path id="Trazado_7248" data-name="Trazado 7248" d="M230.563,358.975v3.985h-1.939v-.441a4.192,4.192,0,0,1-2.28.675h-.022a4.219,4.219,0,0,1,0-8.439h.022a4.2,4.2,0,0,1,2.28.674v-.462h1.939Zm-1.939.441v-.881a2.326,2.326,0,0,0-2.28-1.876h-.022a2.32,2.32,0,0,0,0,4.639h.022A2.332,2.332,0,0,0,228.625,359.416Z" transform="translate(-222.132 -331.785)" fill="#454546"/>
        <rect id="Rect치ngulo_2990" data-name="Rect치ngulo 2990" width="2.109" height="8.204" transform="translate(18.597 22.971)" fill="#454546"/>
        <rect id="Rect치ngulo_2991" data-name="Rect치ngulo 2991" width="2.109" height="1.854" transform="translate(18.597 20.485)" fill="#454546"/>
      </g>
    </g>
  </g>
</svg>
