<svg xmlns="http://www.w3.org/2000/svg" width="54.596" height="31.869" viewBox="0 0 54.596 31.869">
  <g id="Grupo_18533" data-name="Grupo 18533" transform="translate(-21.993 -19.793)">
    <path id="Under_Armour-Logo.wine" d="M40.064,11.916c4.431-1.95,7.325-4.877,7.483-8.125A21.237,21.237,0,0,0,42.6,1.5,27.545,27.545,0,0,0,36.752,0l.012,7.237A4.96,4.96,0,0,1,35.51,10.4a35.106,35.106,0,0,0-8.185-.946h0a35.121,35.121,0,0,0-8.192.948,4.965,4.965,0,0,1-1.255-3.164L17.887,0a27.575,27.575,0,0,0-5.848,1.5A21.177,21.177,0,0,0,7.094,3.791c.157,3.249,3.051,6.178,7.488,8.127C10.149,13.868,7.256,16.8,7.1,20.042a21.158,21.158,0,0,0,4.946,2.291,27.562,27.562,0,0,0,5.848,1.5L17.881,16.6a4.954,4.954,0,0,1,1.255-3.162,34.992,34.992,0,0,0,8.184.945h0a34.961,34.961,0,0,0,8.193-.948A4.969,4.969,0,0,1,36.767,16.6l-.01,7.237a27.559,27.559,0,0,0,5.848-1.5,21.153,21.153,0,0,0,4.946-2.291c-.158-3.249-3.052-6.177-7.488-8.126M27.321,13.545h0l-.083,0A11.877,11.877,0,0,1,20.9,11.918a11.87,11.87,0,0,1,6.338-1.627h.167a11.875,11.875,0,0,1,6.332,1.624A11.876,11.876,0,0,1,27.4,13.543M1.293,31.851A1.17,1.17,0,0,1,0,30.508V28.744c0-.107-.009-.249.218-.249H.875c.213,0,.2.152.2.249v1.763a.425.425,0,0,0,.486.462h1.1a.424.424,0,0,0,.48-.462V28.744c0-.1-.013-.249.2-.249H4c.24,0,.219.152.219.249v1.763a1.171,1.171,0,0,1-1.3,1.343m4.458-.213c-.449-.6-1.089-1.365-1.742-2.169v2.147c0,.094.023.236-.2.236H4.826c-.222,0-.2-.142-.2-.236V28.745c0-.1-.01-.249.2-.249h1.2c.338,0,.819.68,1.134,1.129.243.342.693.857.995,1.244V28.745c0-.1-.014-.249.209-.249h.666c.214,0,.2.152.2.249v3.107H8a.671.671,0,0,1-.618-.213m5.052-.67c.537,0,.5-.516.5-.751,0-.791-.223-.822-.578-.822H10.665v1.574Zm-2.805.884V28.5H12.59a1.235,1.235,0,0,1,1.394,1.253c0,1.3.142,2.1-1.367,2.1h-1.6l-.347-.7v.7m4.47-3.33h2.728c.232,0,.2.151.2.431,0,.261.035.408-.2.408H15.717c-.058,0-.252-.031-.252.173s-.04.285.177.285h1.907s.276.524.307.613.04.156-.128.156H15.753l-.307-.6v.88c0,.2.183.165.235.165h2.24c.223,0,.2.155.2.408,0,.273.018.422-.2.422H15.086c-.235,0-.7-.071-.7-.808V29.211a.681.681,0,0,1,.755-.688m6.042.862H19.858c-.221,0-.213.076-.213.143v.6h1.369c.663,0,.663-.166.663-.339,0-.347-.026-.4-.49-.4M18.81,28.5H21.8c.4,0,.981,0,.981,1.076,0,.706-.15.742-.47.96.538.093.467.782.467,1.138,0,.182-.066.178-.121.178h-.875c-.183,0-.138-.289-.138-.44,0-.414-.231-.4-.32-.4H20.031c-.124-.214-.364-.694-.364-.694v1.391c0,.121-.121.138-.165.138h-.879c.048,0-.09.009-.09-.112V28.79a.267.267,0,0,1,.276-.289m8.754.95-.551,1,.049.049h1.027l.054-.049c-.036-.076-.48-.92-.525-1.009l-.054,0m.355-.928c.218,0,.43.1.662.546.157.319,1.241,2.279,1.467,2.688v.111H28.918l-.325-.587H27.221s-.231-.528-.3-.674c-.085.137-.538,1-.7,1.261H25.1V31.8c.231-.435,1.809-3.274,1.809-3.274m6.1.862H31.68c-.222,0-.213.076-.213.143v.6h1.369c.663,0,.663-.166.663-.339,0-.347-.026-.4-.49-.4M30.632,28.5h2.986c.4,0,.982,0,.982,1.076,0,.706-.15.742-.471.96.537.093.466.782.466,1.138,0,.182-.066.178-.12.178H33.6c-.183,0-.138-.289-.138-.44,0-.414-.231-.4-.32-.4H31.853c-.125-.214-.365-.694-.365-.694v1.391c0,.121-.119.138-.164.138h-.88c.049,0-.089.009-.089-.112V28.79a.267.267,0,0,1,.275-.289m6.577,3.351c-.223-.417-.841-1.569-1.258-2.323v2.088c0,.093.013.235-.2.235h-.605c-.227,0-.209-.142-.209-.235V28.744c0-.1-.013-.244.209-.244h1.044c.156,0,.377-.036.627.462.187.4.583,1.227.854,1.666a18.566,18.566,0,0,0,.871-1.666c.244-.5.461-.462.635-.462h1.04c.214,0,.192.147.192.244v2.871c0,.093.03.235-.192.235h-.608c-.222,0-.2-.142-.2-.235V29.528c-.421.754-1.035,1.906-1.267,2.323M43.74,31c.5,0,.485-.519.485-.866,0-.311.071-.8-.582-.8H42.535c-.648,0-.572.489-.572.8,0,.348-.031.866.471.866Zm-1.99.862c-.991,0-.947-1.063-.947-1.75,0-.632-.071-1.618,1.169-1.627h2.2c1.244,0,1.163,1,1.163,1.627,0,.687.05,1.75-.956,1.75m2.613-.009A1.169,1.169,0,0,1,45.7,30.508V28.744c0-.107-.009-.249.218-.249h.658c.212,0,.2.152.2.249v1.763a.424.424,0,0,0,.485.462h1.1a.424.424,0,0,0,.48-.462V28.744c0-.1-.013-.249.2-.249H49.7c.24,0,.219.152.219.249v1.763a1.171,1.171,0,0,1-1.3,1.343M53,29.385H51.675c-.222,0-.213.076-.213.143v.6H52.83c.663,0,.663-.166.663-.339,0-.347-.026-.4-.49-.4M50.625,28.5h2.987c.4,0,.983,0,.983,1.076,0,.706-.152.742-.472.96.538.093.467.782.467,1.138,0,.182-.066.178-.121.178h-.875c-.182,0-.138-.289-.138-.44,0-.414-.231-.4-.319-.4h-1.29c-.124-.214-.364-.694-.364-.694v1.391c0,.121-.121.138-.165.138H50.44c.048,0-.09.009-.09-.112V28.79a.266.266,0,0,1,.274-.289" transform="translate(21.993 19.793)" fill="#454546"/>
  </g>
</svg>
