<svg xmlns="http://www.w3.org/2000/svg" width="53.069" height="35.679" viewBox="0 0 53.069 35.679">
  <g id="Grupo_18536" data-name="Grupo 18536" transform="translate(-24.192 -17.594)">
    <g id="Grupo_16764" data-name="Grupo 16764" transform="translate(24.192 17.594)">
      <path id="_2" data-name="2" d="M172.479,83.042l.779-2.23-2.654.035-.5.053-.442.106-.425.142-.372.195-.372.212-.3.265-.3.3-.23.336v8.017h2.3V84.21l.212-.336.195-.265.23-.195.248-.142.265-.071Z" transform="translate(-120.189 -57.929)" fill="#454546" fill-rule="evenodd"/>
      <path id="_3" data-name="3" d="M137.466,87.485l-.159-.248-.124-.23-.106-.265-.053-.248h5.822l.035-.407.018-.389-.018-.5-.053-.46-.088-.372-.089-.336-.106-.336-.124-.3-.159-.319-.177-.283-.195-.283-.212-.265-.318-.354-.319-.283-.354-.248-.336-.195-.372-.159-.195-.071-.177-.035-.212-.053-.195-.018-.407-.018-.442.018-.407.071-.389.106-.354.159-.372.195-.336.248-.319.283-.3.354-.3.354-.23.389-.212.389-.159.442-.142.425-.088.46-.053.478-.018.513.018.478.053.478.088.46.053.212.088.23.159.407.089.195.124.212.23.389.3.389.3.319.319.3.336.23.372.212.354.142.389.124.407.071.442.035.035-.018h.159l.212-.018.195-.035.212-.035.177-.071.088-.035.106-.018.177-.071.195-.071.159-.106.177-.106.354-.23.319-.3.318-.319.195-.248.177-.248-1.84-1.327-.106.159-.088.071-.071.089-.142.142-.177.124-.142.106-.177.071-.159.071-.354.071-.389-.071-.336-.142-.177-.106-.159-.124-.142-.142Zm2.637-3.593.124.195.106.212.177.442h-3.451l.159-.442.248-.407.265-.336.336-.212.336-.142.389-.035.354.035.159.053.177.088.319.212.142.142.159.195Z" transform="translate(-96.536 -57.929)" fill="#454546" fill-rule="evenodd"/>
      <path id="_4" data-name="4" d="M104.452,80.813l-.442.035-.566.018-.513.088-.478.124-.442.195-.407.23-.372.283-.336.319-.159.177-.124.212V93.608h2.318V89.821l.088.195.159.177.195.124.23.124.265.053.142.018.177.035h.159l.195.018.407-.018.318-.071.071-.035.035-.018h.053l.177-.035.319-.124.319-.159.283-.195.283-.23.124-.142.142-.124.283-.265.265-.389.248-.389.089-.212.106-.195.088-.212.106-.195v-.106l.018-.018.035-.106.071-.212.088-.46.018-.248.035-.23.018-.248V85.8l.018-.106-.035-.513-.053-.478-.088-.46-.124-.425-.195-.442-.195-.389-.248-.389-.265-.354-.319-.354-.319-.283-.354-.248-.336-.195-.389-.159-.195-.071-.177-.035-.212-.053-.195-.018-.407-.018Zm0,2.354h.177l.195.035.159.053.177.088.319.212.142.142.159.195.212.372.177.442.106.478.035.513-.018.106v.124l-.018.248-.035.106h-.018v.124l-.053.248-.088.212-.088.212-.106.195-.106.212-.088.071-.071.089-.142.142-.177.124-.142.106-.177.071-.159.071-.195.035-.177.035-.389-.071-.336-.142-.177-.106-.142-.124-.142-.142-.124-.159-.212-.354V84.246l.088-.195.124-.159.265-.336.319-.212.336-.142Z" transform="translate(-72.122 -57.929)" fill="#454546" fill-rule="evenodd"/>
      <path id="_5" data-name="5" d="M70.894,80.813l-.442.035-.566.018-.513.088-.478.124-.442.195-.407.23-.372.283-.336.319-.159.177-.124.212V93.608h2.318V89.821l.088.195.159.177.195.124.23.124.265.053.142.018.177.035h.159l.195.018.407-.018.319-.071.071-.035.035-.018h.053l.177-.035.319-.124.319-.159.283-.195.283-.23.124-.142.142-.124.283-.265.265-.389.248-.389.088-.212.106-.195.088-.212.106-.195v-.106l.018-.018.035-.106.071-.212.088-.46.018-.248.035-.23.018-.248V85.8L75,85.7l-.035-.513-.053-.478-.088-.46-.124-.425-.195-.442-.195-.389-.248-.389-.265-.354-.319-.354-.319-.283-.354-.248-.336-.195-.389-.159-.195-.071-.177-.035-.212-.053L71.3,80.83Zm-1.522,3.433.088-.195.124-.159.265-.336.319-.212L70.5,83.2l.389-.035h.177l.195.035.159.053.177.088.142.088.159.124.142.142.159.195.23.372.177.442.106.478.035.513-.018.106v.124l-.018.248-.035.106h-.018v.124l-.053.248-.089.212-.088.212-.071.089-.053.106-.106.212-.088.071-.071.089-.142.142H71.85V87.8l-.035.035-.071.071-.142.106-.177.071-.159.071-.195.035-.177.035-.389-.071-.336-.142-.177-.106-.142-.124-.142-.142-.124-.159-.212-.354Z" transform="translate(-48.067 -57.929)" fill="#454546" fill-rule="evenodd"/>
      <path id="_6" data-name="6" d="M9.821,75.006V72.688H0v2.318H3.751v9.752h2.3V75.006H9.821Z" transform="translate(0 -52.105)" fill="#454546" fill-rule="evenodd"/>
      <path id="_7" data-name="7" d="M33.137,82.246l-.3.354-.23.389-.212.389-.159.442-.142.425-.088.46-.053.478-.018.513.018.478.053.478.088.46.053.212.088.23.159.407.088.195.124.212.23.389.3.389.3.319.319.3.336.23.372.212.354.142.389.124.407.071.425.035.035-.018h.159l.212-.018.195-.035.212-.035.177-.071.088-.035.106-.018.389-.142.159-.106L37.95,90l.354-.23.319-.3.319-.319.265-.389.248-.389.088-.212.106-.195.088-.212.106-.195v-.106l.018-.018.035-.106.071-.212.088-.46.018-.248.035-.23.018-.248V85.8l.018-.106-.035-.513-.053-.478-.088-.46-.124-.425-.195-.442-.195-.389-.248-.389-.265-.354-.319-.354-.319-.283-.354-.248-.336-.195-.389-.159-.195-.071-.177-.035-.212-.053-.195-.018-.407-.018-.425.018-.407.071-.389.106-.354.159-.372.195-.336.248-.319.283Zm1.593,5.239-.142-.212-.106-.195-.106-.212-.071-.212-.071-.248-.035-.23-.018-.478.018-.513.106-.478.177-.442.248-.372.265-.336.319-.212.336-.142.389-.035h.177l.195.035.159.053.177.088.319.212.142.142.159.195.212.372.177.442.106.478.035.513-.018.106v.124l-.018.248-.035.106h-.018v.124l-.053.248-.088.212-.088.212-.106.195-.106.212-.088.071-.071.089-.142.142-.177.124-.142.106-.177.071-.159.071-.195.035-.177.035-.389-.071-.336-.142-.177-.106-.142-.124-.142-.142Z" transform="translate(-22.89 -57.929)" fill="#454546" fill-rule="evenodd"/>
      <path id="_8" data-name="8" d="M77.453.071l-.018.088.018.248L77.47.69l-.053.248-.035.124-.018.142-.124.248L77.1,1.7l-.106.106-.035.018-.018.035-.035.071-.195.248-.265.212-.159.106-.142.124-.336.212-.336.212-.407.177-.442.212-.478.177-.5.212-.3.071-.283.088-.6.177-.336.071-.319.088-.655.177-.726.142-.372.071-.195.035-.177.053-.8.142-.814.142-.885.106-.9.142-.938.106-.5.053-.478.071-.531.035H63.7l-.124.018-.248.035-1.044.106-.549.035-.283.018-.265.035-1.115.106H60L59.969,6l-.035.018v.071l.035.088.106.035H72.339l1.947-.035,1.911.018,1.858.018,1.8.088,1.734.088,1.681.124,1.628.142,1.593.195.5.071.425.106.354.106.319.106.23.106.177.106.106.106.053.124-.071.106-.106.124-.177.124-.23.142-.319.142-.372.142-.425.159-.5.177-.265.035-.142.018-.124.035-.549.106-.3.035h-.088l-.071.018-.142.035-.319.035-.319.053-.354.018-.354.035-.743.071h-.319l-.088.018-.389.035-.832.071h-.69l-.212.018-.938.035h-1.77l-.248.018-.283-.018H74.975l-.6-.018H73.79l-.6-.018h-.6L52.555,9.185l-.088.035-.035.035v.106l.035.053.018.018.071.018,1.575.106,1.522.142L57.1,9.84,58.5,10l1.327.159,1.274.177,1.221.177,1.168.212,1.079.195,1.026.212.973.212.92.248.832.23.779.265.726.265.672.283.566.265.531.283.46.283.407.319.336.3.283.336.23.336.177.354.088.336.035.354-.018.372-.071.389-.142.389-.195.407-.265.407-.3.425-.018.071.035.106.071.035.035-.018H72.8l1.681-.938,1.734-.9,1.787-.9,1.858-.849,1.876-.867,1.947-.814,2-.814,2.053-.779.018-.018.637-.425.283-.212.283-.195.248-.212.23-.212.425-.389.159-.212.142-.212.248-.389.088-.212.071-.212.053-.212.035-.177V8.017L90.636,7.8l-.071-.425-.071-.212-.088-.212L90.3,6.743l-.124-.177-.159-.212-.177-.212-.389-.389-.5-.425-.265-.212-.283-.177-.372-.248-.407-.212-.442-.212-.478-.195-.531-.212-.549-.177L85.044,3.5l-.619-.159-.336-.106-.336-.106L83.4,2.991l-.354-.124-.389-.177-.389-.159-.212-.106-.106-.053-.088-.035-.407-.177-.124-.071-.106-.053-.212-.106-.124-.071-.106-.053L80.567,1.7l-.46-.248-.46-.248-.5-.283-.5-.283L78.143.319l-.5-.3L77.577,0l-.035.018-.088.053Z" transform="translate(-37.585)" fill="#454546" fill-rule="evenodd"/>
    </g>
  </g>
</svg>
